<?xml version="1.0" standalone="no"?><!DOCTYPE svg PUBLIC "-//W3C//DTD SVG 1.1//EN" "http://www.w3.org/Graphics/SVG/1.1/DTD/svg11.dtd"><svg t="1775009499604" class="icon" viewBox="0 0 1024 1024" version="1.1" xmlns="http://www.w3.org/2000/svg" p-id="14814" xmlns:xlink="http://www.w3.org/1999/xlink" width="200" height="200"><path d="M420.6592 510.30016l90.27584-90.25536 90.25536 90.25536-90.25536 90.33728-90.25536-90.33728z m287.29344 0l90.25536-90.25536 90.25536 90.25536-90.25536 90.25536-90.25536-90.25536z m-574.5664 0l90.25536-90.25536 90.25536 90.25536-90.25536 90.25536-90.25536-90.25536z m142.5408-142.45888L510.50496 133.30432l90.25536 90.25536L366.1824 458.09664l-90.25536-90.25536z" fill="#F5B638" p-id="14815"></path><path d="M655.6672 458.09664L421.13024 223.55968l90.25536-90.25536L745.92256 367.8208l-90.25536 90.25536z m-289.46432 105.6768L600.73984 798.3104l-90.25536 90.25536-234.53696-234.53696 90.25536-90.25536z" fill="#F5B638" p-id="14816"></path><path d="M746.02496 654.0288L511.488 888.56576l-90.25536-90.25536L655.7696 563.77344z" fill="#F5B638" p-id="14817"></path></svg>