<?xml version="1.0" standalone="no"?><!DOCTYPE svg PUBLIC "-//W3C//DTD SVG 1.1//EN" "http://www.w3.org/Graphics/SVG/1.1/DTD/svg11.dtd"><svg t="1775009412953" class="icon" viewBox="0 0 1024 1024" version="1.1" xmlns="http://www.w3.org/2000/svg" p-id="9293" xmlns:xlink="http://www.w3.org/1999/xlink" width="200" height="200"><path d="M920.9 869.1H100v-98h820.9v98z m-783.4-37.5h746v-23.1h-746v23.1zM920.9 426.6H100v-96.2h820.9v96.2z m-783.4-37.5h746v-21.3h-746v21.3z" fill="#e6e6e6" p-id="9294"></path><path d="M960.1 928.8H66.5v-98h893.6v98z m-856.2-37.5h818.7v-23.1H103.9v23.1zM235.4 807.8h-96.2V389.1h96.2v418.7z m-58.7-37.5H198V426.6h-21.3v343.7zM558.6 807.8h-96.2V389.1h96.2v418.7z m-58.8-37.5h21.3V426.6h-21.3v343.7zM397 807.8h-96.2V389.1H397v418.7z m-58.8-37.5h21.3V426.6h-21.3v343.7zM720.2 807.8H624V389.1h96.2v418.7z m-58.8-37.5h21.3V426.6h-21.3v343.7zM881.8 807.8h-96.2V389.1h96.2v418.7zM823 770.3h21.3V426.6H823v343.7zM936.2 372.2l-847.3-4.3-9-35.1 420.8-235H519l426.4 239.4-9.2 35z m-775.9-41.4l703.6 3.6-354.1-198.8-349.5 195.2z" fill="#e6e6e6" p-id="9295"></path><path d="M139.2 341V163.9h318.6L139.2 341z m37.5-139.6v76l136.6-76H176.7zM884.1 341L565.5 163.9h318.6V341zM710 201.4l136.6 76v-76H710zM730.8 309.1H278.2l231.3-128.4 221.3 128.4z m-307.9-37.5h168.7l-82.5-47.9-86.2 47.9z" fill="#e6e6e6" p-id="9296"></path></svg>