<?xml version="1.0" standalone="no"?><!DOCTYPE svg PUBLIC "-//W3C//DTD SVG 1.1//EN" "http://www.w3.org/Graphics/SVG/1.1/DTD/svg11.dtd"><svg t="1775009484419" class="icon" viewBox="0 0 1024 1024" version="1.1" xmlns="http://www.w3.org/2000/svg" p-id="13771" xmlns:xlink="http://www.w3.org/1999/xlink" width="200" height="200"><path d="M362.42432 92.3648h299.13088c180.0448 0 270.06976 90.01472 270.06976 270.05952v299.13088c0 180.0448-90.02496 270.06976-270.06976 270.06976H362.42432c-180.0448 0-270.06464-90.02496-270.06464-270.06976V362.42432c0-180.0448 90.01984-270.06464 270.06464-270.06464z" fill="#0684B9" p-id="13772"></path><path d="M802.32448 316.288c19.24608 262.20544-148.33664 386.13504-298.5728 399.34976-139.6736 12.288-271.1552-74.03008-282.68544-206.64832-9.51296-109.568 57.81504-156.2112 110.72-160.86016 54.40512-4.79744 100.13184 32.93696 104.09984 78.63296 3.81952 43.9296-23.43424 63.9232-42.3936 65.5872-14.98624 1.32096-33.8432-7.8336-35.54816-27.48416-1.4592-16.88576 4.9152-19.18976 3.35872-37.12512-2.77504-31.93856-30.464-35.6608-45.62944-34.33984-18.34496 1.61792-51.6352 23.15264-46.96064 76.8 4.69504 54.10816 56.27904 96.86528 123.904 90.91584 72.98048-6.41024 123.78624-63.55456 127.60576-143.70304-0.03584-4.2496 0.85504-8.448 2.60608-12.3136l0.02048-0.09728c0.78848-1.67936 1.71008-3.29216 2.75456-4.81792 1.55648-2.3552 3.55328-4.94592 6.12864-7.7824 0.0256-0.0768 0.0256-0.0768 0.0768-0.0768a122.7776 122.7776 0 0 1 6.68672-6.90176c31.88224-30.24896 146.688-101.58592 255.26272-79.0016 2.29376 0.49664 4.36736 1.72544 5.9136 3.50208 1.54112 1.78176 2.47296 4.00896 2.65216 6.36416z" fill="#FFFFFF" p-id="13773"></path></svg>