<?xml version="1.0" standalone="no"?><!DOCTYPE svg PUBLIC "-//W3C//DTD SVG 1.1//EN" "http://www.w3.org/Graphics/SVG/1.1/DTD/svg11.dtd"><svg t="1775009594063" class="icon" viewBox="0 0 1024 1024" version="1.1" xmlns="http://www.w3.org/2000/svg" p-id="25667" xmlns:xlink="http://www.w3.org/1999/xlink" width="200" height="200"><path d="M512 512m-512 0a512 512 0 1 0 1024 0 512 512 0 1 0-1024 0Z" fill="#000000" p-id="25668"></path><path d="M650.368 413.952l38.912 45.696c4.48 5.12 8.32 9.344 9.984 11.776 11.584 11.52 18.112 27.136 18.112 43.392-1.088 19.2-13.568 32.32-25.152 46.272l-27.2 32-14.208 16.512a3.84 3.84 0 0 0 0.896 5.888c0.64 0.384 1.408 0.64 2.24 0.576h141.76c21.696 0 48.96 18.176 47.36 45.824 0 12.544-5.12 24.576-14.08 33.472a48.64 48.64 0 0 1-33.984 13.952h-222.08c-14.72 0-53.952 1.536-64.96-32a39.296 39.296 0 0 1-0.896-21.632c3.2-10.624 8.256-20.544 14.912-29.44 11.2-16.576 23.296-33.088 35.2-49.152 15.36-20.992 31.168-41.344 46.72-62.784a3.84 3.84 0 0 0 0-4.864l-56.448-66.176a4.032 4.032 0 0 0-4.928-1.152 3.968 3.968 0 0 0-1.344 1.152c-15.168 20.096-81.28 109.12-95.36 127.168-14.08 17.984-48.896 19.008-68.16 0L289.472 483.136a3.968 3.968 0 0 0-2.112-1.088 4.032 4.032 0 0 0-4.8 3.84v167.936a56.576 56.576 0 0 1-10.24 33.408 57.792 57.792 0 0 1-28.032 21.248 48.768 48.768 0 0 1-58.752-23.04 47.04 47.04 0 0 1-5.44-21.76V361.792a51.328 51.328 0 0 1 11.392-29.888 52.544 52.544 0 0 1 54.784-17.536 53.632 53.632 0 0 1 24 13.824l135.68 133.888a4.16 4.16 0 0 0 3.2 1.152 4.032 4.032 0 0 0 2.88-1.664l96.384-131.456a48.192 48.192 0 0 1 36.608-17.28h250.688a48.768 48.768 0 0 1 36.16 16.192 47.232 47.232 0 0 1 11.52 37.568 48.448 48.448 0 0 1-16.896 29.824 49.664 49.664 0 0 1-32.64 11.52h-140.288a3.968 3.968 0 0 0-3.84 4.096c0 0.64 0.256 1.344 0.64 1.92z" fill="#000000" p-id="25669"></path><path d="M216.896 220.48h205.44v188.992H601.6V220.48h205.504v205.504H617.984v172.544h189.12v205.44h-205.44V615.04H422.4v189.056H216.896V598.464h195.584V425.984H216.96v-205.44z" fill="#FEFEFE" p-id="25670"></path></svg>